<svg version="1.1" viewBox="0 0 841.9 595.3" xmlns="http://www.w3.org/2000/svg">
 <g transform="matrix(53.54 0 0 53.54 84.79 -34.357)" fill="#fc0" stroke-width=".013897">
  <path d="m0.81812 7.1448-0.40461 2.3223h3.8308l-0.40461-2.3223z"/>
  <path d="m4.8474 7.1568-0.40461 2.3223h3.8308l-0.40461-2.3223z"/>
  <path d="m8.8309 7.1568-0.40461 2.3223h3.8308l-0.40461-2.3223z"/>
  <path d="m2.8098 4.7105-0.40461 2.3223h3.8308l-0.40461-2.3223z"/>
  <path d="m6.9039 4.7105-0.40461 2.3223h3.8308l-0.40461-2.3223z"/>
  <path d="m4.8753 2.2762-0.40461 2.3223h3.8308l-0.40461-2.3223z"/>
 </g>
 <g fill="#fc0">
  <path d="m664.03 164.17-16.495-59.274-59.274-16.495 59.274-16.495 16.495-59.274 16.495 59.274 59.274 16.495-59.274 16.495z"/>
  <path d="m724.02 278.89-8.4798-30.471-30.471-8.4798 30.471-8.4798 8.4798-30.471 8.4798 30.471 30.471 8.4798-30.471 8.4798z"/>
  <path d="m479.87 69.528-6.6597-23.931-23.931-6.6597 23.931-6.6597 6.6597-23.931 6.6597 23.931 23.931 6.6597-23.931 6.6597z"/>
 </g>
</svg>
